<?xml version="1.0" encoding="iso-8859-1"?>
<!-- Generator: Adobe Illustrator 19.0.0, SVG Export Plug-In . SVG Version: 6.00 Build 0)  -->
<svg version="1.1" id="Layer_1" xmlns="http://www.w3.org/2000/svg" xmlns:xlink="http://www.w3.org/1999/xlink" x="0px" y="0px"
	 viewBox="0 0 505 505" style="enable-background:new 0 0 505 505;" xml:space="preserve">
<circle style="fill:#FFD05B;" cx="252.5" cy="252.5" r="252.5"/>
<g>
	<rect x="368.8" y="127.8" style="fill:#324A5E;" width="19.1" height="216.4"/>
	<rect x="333.1" y="179.9" style="fill:#324A5E;" width="19.1" height="164.3"/>
	<rect x="297.5" y="231" style="fill:#324A5E;" width="19.1" height="113.2"/>
	<rect x="261.8" y="146.6" style="fill:#324A5E;" width="19.1" height="197.6"/>
	<rect x="226.1" y="198.8" style="fill:#324A5E;" width="19.1" height="145.4"/>
	<rect x="190.5" y="179.9" style="fill:#324A5E;" width="19.1" height="164.3"/>
	<rect x="154.8" y="231" style="fill:#324A5E;" width="19.1" height="113.2"/>
</g>
<polygon style="fill:#FFFFFF;" points="408.7,372.1 132.9,372.1 132.9,96.3 117.2,96.3 117.2,119.1 96.3,119.1 96.3,134.9 
	117.2,134.9 117.2,174.7 96.3,174.7 96.3,190.4 117.2,190.4 117.2,230.2 96.3,230.2 96.3,246 117.2,246 117.2,285.8 96.3,285.8 
	96.3,301.6 117.2,301.6 117.2,341.4 96.3,341.4 96.3,357.2 117.2,357.2 117.2,387.8 147.8,387.8 147.8,408.7 163.6,408.7 
	163.6,387.8 203.4,387.8 203.4,408.7 219.2,408.7 219.2,387.8 259,387.8 259,408.7 274.8,408.7 274.8,387.8 314.6,387.8 
	314.6,408.7 330.3,408.7 330.3,387.8 370.1,387.8 370.1,408.7 385.9,408.7 385.9,387.8 408.7,387.8 "/>
<g>
</g>
<g>
</g>
<g>
</g>
<g>
</g>
<g>
</g>
<g>
</g>
<g>
</g>
<g>
</g>
<g>
</g>
<g>
</g>
<g>
</g>
<g>
</g>
<g>
</g>
<g>
</g>
<g>
</g>
</svg>
